<svg xmlns="http://www.w3.org/2000/svg" width="500" height="500" viewBox="0 0 500 500">
<g>
<path d="M 316.00 222.05 L 316.00 291.00 L 284.70 291.00 C261.69,291.00 253.08,290.68 252.20,289.80 C250.57,288.17 250.69,287.00 252.50,287.00 C255.12,287.00 262.13,279.77 267.67,271.36 C273.45,262.60 280.89,255.00 283.69,255.00 C284.93,255.00 284.13,256.34 280.83,259.75 C275.75,264.99 274.00,267.85 274.00,270.88 C274.00,278.33 285.63,271.62 290.97,261.09 C294.22,254.68 297.07,251.72 301.96,249.66 L 305.41 248.21 L 301.46 247.11 C289.74,243.86 276.42,247.03 270.22,254.55 C268.03,257.20 266.94,257.93 266.62,256.93 C266.36,256.14 265.40,253.02 264.47,250.00 C260.37,236.65 251.59,225.04 235.23,211.37 C219.04,197.83 214.65,193.10 210.52,184.73 C205.09,173.71 204.07,163.91 207.61,156.87 C210.19,151.72 219.13,146.00 224.59,146.00 L 226.93 146.00 L 225.07 149.25 C224.04,151.04 222.91,155.46 222.54,159.09 C221.57,168.71 217.15,175.03 213.51,172.01 C211.14,170.04 210.62,164.45 212.32,159.26 C214.34,153.14 213.59,152.47 211.04,158.10 C208.31,164.11 208.27,173.27 210.96,175.96 C214.01,179.01 216.82,177.43 236.79,161.45 C246.72,153.50 255.36,147.00 255.99,147.00 C256.62,147.00 278.09,163.76 303.69,184.25 L 350.26 221.50 L 333.13 221.77 ZM 267.93 244.87 C269.35,247.53 270.43,247.54 274.11,244.92 C278.27,241.96 280.00,237.96 280.00,231.29 C280.00,228.10 280.42,224.03 280.93,222.24 C281.44,220.46 281.55,219.01 281.18,219.02 C278.82,219.10 270.17,225.08 268.18,228.00 C266.17,230.96 265.88,232.36 266.30,237.12 C266.57,240.20 267.30,243.69 267.93,244.87 Z" fill="rgb(2,101,35)"/>
<path d="M 232.00 287.26 L 236.50 290.96 L 232.50 290.93 C230.30,290.91 225.22,290.03 221.22,288.98 C199.38,283.26 183.39,267.48 178.53,246.87 C174.21,228.55 178.64,202.70 189.98,180.00 C192.77,174.42 193.85,170.83 194.23,165.95 C194.51,162.35 195.52,157.85 196.48,155.95 C198.45,152.07 202.88,147.00 204.32,147.00 C204.88,147.00 205.06,149.91 204.77,154.01 C204.40,159.13 203.42,162.74 201.12,167.41 C198.13,173.49 198.03,174.05 199.11,179.15 C202.08,193.20 208.08,201.27 227.76,217.71 C241.24,228.97 248.14,236.98 252.80,246.81 C261.20,264.48 256.30,280.33 243.02,278.44 C228.41,276.37 205.53,255.72 195.07,235.15 C192.14,229.39 191.54,230.35 193.86,237.09 C199.78,254.30 212.85,271.50 232.00,287.26 ZM 190.59 168.12 C191.42,175.40 190.32,175.69 183.27,170.12 C176.25,164.57 171.38,158.54 167.43,150.50 C163.38,142.26 161.26,130.07 162.66,123.05 L 163.54 118.59 L 167.86 122.50 C179.53,133.03 188.71,151.46 190.59,168.12 ZM 185.90 177.81 C187.01,179.89 186.87,180.00 183.29,179.94 C177.52,179.85 167.16,176.74 160.11,172.98 C153.64,169.53 144.00,161.64 144.00,159.79 C144.00,159.13 147.49,158.92 153.75,159.20 C162.19,159.57 164.31,160.04 169.52,162.71 C175.27,165.66 183.41,173.17 185.90,177.81 Z" fill="rgb(73,114,26)"/>
<path d="M 0.00 250.00 L 0.00 0.00 L 250.00 0.00 L 500.00 0.00 L 500.00 250.00 L 500.00 500.00 L 250.00 500.00 L 0.00 500.00 L 0.00 250.00 ZM 232.00 287.26 C212.85,271.50 199.78,254.30 193.86,237.09 C191.54,230.35 192.14,229.39 195.07,235.15 C205.53,255.72 228.41,276.37 243.02,278.44 C256.30,280.33 261.20,264.48 252.80,246.81 C248.14,236.98 241.24,228.97 227.76,217.71 C208.08,201.27 202.08,193.20 199.11,179.15 C198.03,174.05 198.13,173.49 201.12,167.41 C203.42,162.74 204.40,159.13 204.77,154.01 C205.06,149.91 204.88,147.00 204.32,147.00 C202.88,147.00 198.45,152.07 196.48,155.95 C195.52,157.85 194.51,162.35 194.23,165.95 C193.85,170.83 192.77,174.42 189.98,180.00 C178.64,202.70 174.21,228.55 178.53,246.87 C183.39,267.48 199.38,283.26 221.22,288.98 C225.22,290.03 230.30,290.91 232.50,290.93 L 236.50 290.96 L 232.00 287.26 ZM 316.00 256.52 L 316.00 222.05 L 333.13 221.77 L 350.26 221.50 L 303.69 184.25 C278.09,163.76 256.62,147.00 255.99,147.00 C255.36,147.00 246.72,153.50 236.79,161.45 C216.82,177.43 214.01,179.01 210.96,175.96 C208.27,173.27 208.31,164.11 211.04,158.10 C213.59,152.47 214.34,153.14 212.32,159.26 C210.62,164.45 211.14,170.04 213.51,172.01 C217.15,175.03 221.57,168.71 222.54,159.09 C222.91,155.46 224.04,151.04 225.07,149.25 L 226.93 146.00 L 224.59 146.00 C219.13,146.00 210.19,151.72 207.61,156.87 C204.07,163.91 205.09,173.71 210.52,184.73 C214.65,193.10 219.04,197.83 235.23,211.37 C251.59,225.04 260.37,236.65 264.47,250.00 C265.40,253.02 266.36,256.14 266.62,256.93 C266.94,257.93 268.03,257.20 270.22,254.55 C276.42,247.03 289.74,243.86 301.46,247.11 L 305.41 248.21 L 301.96 249.66 C297.07,251.72 294.22,254.68 290.97,261.09 C285.63,271.62 274.00,278.33 274.00,270.88 C274.00,267.85 275.75,264.99 280.83,259.75 C284.13,256.34 284.93,255.00 283.69,255.00 C280.89,255.00 273.45,262.60 267.67,271.36 C262.13,279.77 255.12,287.00 252.50,287.00 C250.69,287.00 250.57,288.17 252.20,289.80 C253.08,290.68 261.69,291.00 284.70,291.00 L 316.00 291.00 L 316.00 256.52 ZM 185.90 177.81 C183.41,173.17 175.27,165.66 169.52,162.71 C164.31,160.04 162.19,159.57 153.75,159.20 C147.49,158.92 144.00,159.13 144.00,159.79 C144.00,161.64 153.64,169.53 160.11,172.98 C167.16,176.74 177.52,179.85 183.29,179.94 C186.87,180.00 187.01,179.89 185.90,177.81 ZM 190.59 168.12 C188.71,151.46 179.53,133.03 167.86,122.50 L 163.54 118.59 L 162.66 123.05 C161.26,130.07 163.38,142.26 167.43,150.50 C171.38,158.54 176.25,164.57 183.27,170.12 C190.32,175.69 191.42,175.40 190.59,168.12 ZM 267.93 244.87 C267.30,243.69 266.57,240.20 266.30,237.12 C265.88,232.36 266.17,230.96 268.18,228.00 C270.17,225.08 278.82,219.10 281.18,219.02 C281.55,219.01 281.44,220.46 280.93,222.24 C280.42,224.03 280.00,228.10 280.00,231.29 C280.00,237.96 278.27,241.96 274.11,244.92 C270.43,247.54 269.35,247.53 267.93,244.87 Z" fill="rgb(247,247,211)"/>
</g>
</svg>